<svg id="Group_8" data-name="Group 8" xmlns="http://www.w3.org/2000/svg" width="28" height="28" viewBox="0 0 28 28">
  <rect id="Rectangle" width="28" height="28" rx="3" fill="rgba(255,76,76,0.2)"/>
  <g id="rubbish-bin" transform="translate(9 7)">
    <path id="Shape" d="M7.479,10H1.132a.671.671,0,0,1-.679-.637L0,0H8.611L8.158,9.363A.671.671,0,0,1,7.479,10ZM6.017,2.056a.274.274,0,0,0-.276.27V7.674a.274.274,0,0,0,.276.27h.442a.273.273,0,0,0,.275-.27V2.326a.273.273,0,0,0-.275-.27Zm-1.932,0a.274.274,0,0,0-.276.27V7.674a.274.274,0,0,0,.276.27h.441a.274.274,0,0,0,.276-.27V2.326a.274.274,0,0,0-.276-.27Zm-1.933,0a.273.273,0,0,0-.275.27V7.674a.273.273,0,0,0,.275.27h.442a.274.274,0,0,0,.276-.27V2.326a.274.274,0,0,0-.276-.27Z" transform="translate(0.556 3.333)" fill="#ff4c4c"/>
    <path id="Path" d="M9.576.706H6.668V.145A.143.143,0,0,0,6.527,0H3.473a.143.143,0,0,0-.141.145V.706H.424A.428.428,0,0,0,0,1.139V2.5H10V1.14A.428.428,0,0,0,9.576.706Z" fill="#ff4c4c"/>
  </g>
</svg>
