<svg xmlns="http://www.w3.org/2000/svg" xmlns:xlink="http://www.w3.org/1999/xlink" width="52" height="52" viewBox="0 0 52 52"><defs><filter id="a" x="0" y="0" width="52" height="52" filterUnits="userSpaceOnUse"><feOffset dy="4" input="SourceAlpha"/><feGaussianBlur stdDeviation="4" result="b"/><feFlood flood-color="#d5d5d5" flood-opacity="0.502"/><feComposite operator="in" in2="b"/><feComposite in="SourceGraphic"/></filter></defs><g transform="translate(12 8)"><g transform="matrix(1, 0, 0, 1, -12, -8)" filter="url(#a)"><circle cx="14" cy="14" r="14" transform="translate(12 8)" fill="#fff"/></g><g transform="translate(8.556 8.556)"><path d="M.251,10.889a.254.254,0,0,1-.245-.309L.565,8.054,2.779,10.28l-2.468.6A.255.255,0,0,1,.251,10.889ZM3.38,9.678h0L1.166,7.452,6.771,1.817,8.986,4.043,3.38,9.677ZM9.563,3.464h0L7.348,1.238l.947-.95a.976.976,0,0,1,1.384,0l.988.993a.763.763,0,0,1,0,1.075l-1.1,1.108Z" fill="#00b372"/></g></g></svg>