<svg id="Group_3" data-name="Group 3" xmlns="http://www.w3.org/2000/svg" width="30" height="30" viewBox="0 0 30 30">
  <circle id="Oval" cx="15" cy="15" r="15" fill="#f1f5f9"/>
  <g id="pencil-edit-button_1_copy_5" data-name="pencil-edit-button (1) copy 5" transform="translate(9 9)">
    <path id="Shape" d="M.3,13a.3.3,0,0,1-.232-.113.3.3,0,0,1-.06-.256L.675,9.616l2.643,2.658-2.947.718A.3.3,0,0,1,.3,13Zm3.735-1.447h0L1.391,8.9,8.084,2.17l2.644,2.657L4.036,11.552Zm7.383-7.417h0L8.772,1.479,9.9.344a1.165,1.165,0,0,1,1.652,0l1.18,1.184a.911.911,0,0,1,0,1.283L11.418,4.135Z" fill="#00b372"/>
  </g>
</svg>
