<svg xmlns="http://www.w3.org/2000/svg" width="16" height="16" viewBox="0 0 16 16"><g transform="translate(-100 -4)"><circle cx="8" cy="8" r="8" transform="translate(100 4)" fill="#ececec"/><g transform="translate(106 6)"><path d="M1.58,10.909A.685.685,0,0,1,1,10.672C.774,10.383.77,9.832.987,8.987l.66-2.777c.085-.332.121-.524.068-.593a.08.08,0,0,0-.068-.029A4.371,4.371,0,0,0,.287,6.2L0,5.717A7.607,7.607,0,0,1,3.7,3.826.464.464,0,0,1,4.086,4c.2.265.2.813-.007,1.583l-.755,2.92c-.09.344-.1.563-.032.651a.108.108,0,0,0,.09.043,2.94,2.94,0,0,0,1.293-.659L5,8.986A6.006,6.006,0,0,1,1.58,10.909ZM3.458,2.437a1.092,1.092,0,0,1-.807-.294,1.06,1.06,0,0,1-.266-.791A1.4,1.4,0,0,1,3.822,0,1.023,1.023,0,0,1,4.914,1.068,1.434,1.434,0,0,1,3.458,2.437Z" fill="#899791"/></g></g></svg>