<svg xmlns="http://www.w3.org/2000/svg" width="40" height="25" viewBox="0 0 40 25"><g fill="#f3f5f7" stroke="#e7eaed" stroke-miterlimit="10" stroke-width="1"><rect width="40" height="25" rx="2" stroke="none"/><rect x="0.5" y="0.5" width="39" height="24" rx="1.5" fill="none"/></g><g transform="translate(6 5)"><path d="M16.181,8.091A8.091,8.091,0,0,1,0,8.091H0a8.091,8.091,0,1,1,16.181,0Z" transform="translate(10.819)" fill="#ffb600"/><path d="M8.091,0a8.112,8.112,0,0,1,8.091,8.091h0A8.091,8.091,0,0,1,0,8.091" transform="translate(10.819)" fill="#f7981d"/><path d="M0,0A8.112,8.112,0,0,1,8.091,8.091h0A8.084,8.084,0,0,1,0,16.181" transform="translate(18.909)" fill="#ff8500"/><path d="M8.026,0a8.091,8.091,0,0,0,.086,16.181,8.219,8.219,0,0,0,5.451-2.1h0a7.7,7.7,0,0,0,.815-.856H12.7a9.877,9.877,0,0,1-.6-.813h2.876a5.479,5.479,0,0,0,.472-.856h-3.82a5.094,5.094,0,0,1-.343-.856h4.464a8.48,8.48,0,0,0,.429-2.568,11.021,11.021,0,0,0-.172-1.712H11.031a6.245,6.245,0,0,1,.215-.856h4.464a5.094,5.094,0,0,0-.343-.856H11.589a8.483,8.483,0,0,1,.472-.856h2.876A4.072,4.072,0,0,0,14.293,3H12.7a7.306,7.306,0,0,1,.815-.813A7.932,7.932,0,0,0,8.069.086C8.069,0,8.069,0,8.026,0Z" fill="#ff5050"/><path d="M0,8a8.093,8.093,0,0,0,8.112,8.086,8.221,8.221,0,0,0,5.451-2.1h0a7.7,7.7,0,0,0,.815-.856H12.7a9.872,9.872,0,0,1-.6-.813h2.876a5.476,5.476,0,0,0,.472-.856h-3.82a5.09,5.09,0,0,1-.343-.856h4.464a8.471,8.471,0,0,0,.429-2.567,11.01,11.01,0,0,0-.172-1.711H11.031a6.239,6.239,0,0,1,.215-.856h4.464a5.09,5.09,0,0,0-.343-.856H11.589a8.477,8.477,0,0,1,.472-.856h2.876a4.07,4.07,0,0,0-.644-.856H12.7A7.3,7.3,0,0,1,13.52,2.1,7.934,7.934,0,0,0,8.069,0H8.026" fill="#e52836"/><path d="M.086,16.087a8.268,8.268,0,0,0,5.471-2.1h0a7.711,7.711,0,0,0,.818-.856H4.7a9.874,9.874,0,0,1-.6-.813H6.979a5.47,5.47,0,0,0,.474-.856H3.618a5.079,5.079,0,0,1-.345-.856h4.48a8.443,8.443,0,0,0,.431-2.567,10.971,10.971,0,0,0-.172-1.711h-5a6.22,6.22,0,0,1,.215-.856h4.48a5.079,5.079,0,0,0-.345-.856H3.575a8.468,8.468,0,0,1,.474-.856H6.935a4.071,4.071,0,0,0-.646-.856H4.7A7.317,7.317,0,0,1,5.514,2.1,7.979,7.979,0,0,0,.043,0H0" transform="translate(7.997)" fill="#cb2026"/><g transform="translate(0.753 5.927)"><path d="M1.243,3.761l.129-.727a1.86,1.86,0,0,1-.214.043c-.3,0-.343-.171-.3-.256l.257-1.5h.471L1.714.513H1.285L1.371,0H.514S0,2.821,0,3.163a.642.642,0,0,0,.686.727A1.318,1.318,0,0,0,1.243,3.761Z" transform="translate(8.977 0.427)" fill="#fff"/><path d="M1.5,3.425A1.374,1.374,0,0,1,0,1.929C0,.847.628,0,1.429,0c.037,0,.075,0,.113.005A1.154,1.154,0,0,1,2.786,1.245a5.454,5.454,0,0,1-.129.77H.9a.567.567,0,0,0,.092.443.821.821,0,0,0,.68.241,2.589,2.589,0,0,0,.9-.214L2.4,3.3A2.319,2.319,0,0,1,1.5,3.425ZM1.5.689c-.493,0-.557.593-.557.6h.943s0-.01,0-.019A.61.61,0,0,0,1.779.8.363.363,0,0,0,1.5.689Z" transform="translate(10.519 0.892)" fill="#fff"/><path d="M2.357,4.146l.171-.94a2.11,2.11,0,0,1-.728.214.866.866,0,0,1-.857-.983C.943,1.41,1.457.855,2.057.855a1.433,1.433,0,0,1,.771.256l.129-.9A3.019,3.019,0,0,0,1.971,0C.986,0,0,.855,0,2.479c0,1.069.514,1.8,1.543,1.8A3.854,3.854,0,0,0,2.357,4.146Z" transform="translate(15.104 0.043)" fill="#fff"/><path d="M.815,3.462C.678,3.462,0,3.417,0,2.522c0-1.19,1.181-1.283,1.543-1.283h.385s.043-.04.043-.213c0-.264-.282-.3-.557-.3A2.564,2.564,0,0,0,.472.9L.6.171A3.1,3.1,0,0,1,1.628,0c.757,0,1.157.369,1.157,1.068L2.443,3.419H1.671l.042-.342c-.01,0-.028.018-.056.044A1.17,1.17,0,0,1,.815,3.462Zm.814-1.581c-.671,0-.771.321-.771.512a.333.333,0,0,0,.343.342c.5,0,.6-.64.6-.812A.866.866,0,0,1,1.628,1.881Z" transform="translate(3.878 0.812)" fill="#fff"/><path d="M.986,3.5A1.1,1.1,0,0,0,2.271,2.393c0-1.069-1.028-.855-1.028-1.282,0-.214.171-.3.471-.3.129,0,.6.043.6.043L2.442.085A3.263,3.263,0,0,0,1.628,0C.986,0,.343.256.343,1.111c0,.983,1.071.9,1.071,1.282,0,.256-.3.3-.514.3a2.808,2.808,0,0,1-.771-.128L0,3.334C.043,3.419.257,3.5.986,3.5Z" transform="translate(6.492 0.769)" fill="#fff"/><path d="M1.071,4.189C.335,4.189,0,3.458,0,2.778,0,1.685.681.726,1.457.726a1.2,1.2,0,0,1,.814.427L2.443,0l.9.042L2.7,4.146H1.842l.043-.3,0,0A1.173,1.173,0,0,1,1.071,4.189Zm.515-2.65C1.182,1.539.9,2,.9,2.65c0,.428.176.684.471.684.445,0,.686-.55.686-1.068C2.057,1.777,1.9,1.539,1.586,1.539Z" transform="translate(22.131 0.128)" fill="#fff"/><path d="M.814,4.1l.514-3.077L1.414,4.1h.6L3.128,1.026,2.657,4.1h.9L4.242,0H2.828L1.971,2.522,1.928,0H.686L0,4.1Z" transform="translate(0.021 0.128)" fill="#fff"/><path d="M.943,3.334c.257-1.41.3-2.564.9-2.351A3.349,3.349,0,0,1,2.142,0H1.971c-.386,0-.686.513-.686.513l.086-.47H.557L0,3.377H.943Z" transform="translate(13.176 0.898)" fill="#fff"/><path d="M.814,3.462C.678,3.462,0,3.417,0,2.522c0-1.19,1.181-1.283,1.543-1.283h.385s.043-.04.043-.213c0-.264-.282-.3-.557-.3A2.564,2.564,0,0,0,.472.9L.6.171A3.1,3.1,0,0,1,1.628,0a1.225,1.225,0,0,1,.918.308,1,1,0,0,1,.24.76L2.443,3.419H1.671l.042-.342c-.01,0-.028.018-.056.044A1.17,1.17,0,0,1,.814,3.462Zm.857-1.581C1,1.881.9,2.2.9,2.393a.333.333,0,0,0,.343.342c.5,0,.6-.64.6-.812C1.8,1.923,1.8,1.923,1.671,1.881Z" transform="translate(17.803 0.812)" fill="#fff"/><path d="M.943,3.334c.257-1.41.3-2.564.9-2.351A3.349,3.349,0,0,1,2.142,0H1.971c-.386,0-.686.513-.686.513l.086-.47H.557L0,3.377H.943Z" transform="translate(20.374 0.898)" fill="#fff"/></g><g transform="translate(0.753 5.927)"><path d="M0,3.163a.642.642,0,0,0,.686.727,1.634,1.634,0,0,0,.643-.128l.129-.727a1.86,1.86,0,0,1-.214.043c-.3,0-.343-.171-.3-.256l.257-1.5h.471L1.8.513H1.371L1.457,0" transform="translate(8.891 0.427)" fill="#dce5e5"/><path d="M1.071,3.425C.428,3.425,0,3.17,0,1.929,0,.631.328,0,1,0c.036,0,.073,0,.111.005A1.154,1.154,0,0,1,2.357,1.245a5.454,5.454,0,0,1-.129.77H.472a.567.567,0,0,0,.092.443.821.821,0,0,0,.68.241,2.58,2.58,0,0,0,.9-.214L1.971,3.3A2.319,2.319,0,0,1,1.071,3.425Zm0-2.735c-.493,0-.557.593-.557.6H1.628a.871.871,0,0,0-.191-.44A.477.477,0,0,0,1.071.689Z" transform="translate(10.948 0.892)" fill="#dce5e5"/><path d="M1.928,4.146l.171-.94a2.11,2.11,0,0,1-.728.214.866.866,0,0,1-.857-.983C.514,1.41,1.028.855,1.628.855a1.433,1.433,0,0,1,.771.256l.129-.9A3.019,3.019,0,0,0,1.543,0C.557,0,0,.855,0,2.479c0,1.069.086,1.8,1.114,1.8A3.854,3.854,0,0,0,1.928,4.146Z" transform="translate(15.533 0.043)" fill="#dce5e5"/><path d="M.815,3.419C.678,3.419,0,3.374,0,2.479,0,1.289,1.181,1.2,1.543,1.2h.385s.043-.043.043-.214c0-.263-.268-.3-.557-.3A2.564,2.564,0,0,0,.472.855L1.586,0c.8,0,1.2.345,1.2,1.026L2.443,3.377H1.671l.042-.342c-.01,0-.028.018-.056.044A1.171,1.171,0,0,1,.815,3.419ZM1.628,1.8c-.671,0-.771.321-.771.512A.333.333,0,0,0,1.2,2.65a1.408,1.408,0,0,0,1.029-.812H2.2A2.73,2.73,0,0,1,1.628,1.8Z" transform="translate(3.878 0.898)" fill="#dce5e5"/><path d="M0,3.419A3.635,3.635,0,0,0,.986,3.5,1.1,1.1,0,0,0,2.271,2.393c0-1.069-1.028-.855-1.028-1.282,0-.214.171-.3.471-.3.129,0,.6.043.6.043L2.442.085A3.263,3.263,0,0,0,1.628,0C.986,0,.771.256.771,1.111c0,.983.643.9.643,1.282,0,.256-.3.3-.514.3" transform="translate(6.534 0.769)" fill="#dce5e5"/><path d="M.646,4.146a.588.588,0,0,1-.441-.154A1.544,1.544,0,0,1,0,2.931c0-.067,0-.132,0-.2C0,1.8.181.684,1.031.684a1.193,1.193,0,0,1,.815.428L2.917,0,2.274,4.1H1.418l.042-.3,0,0A1.172,1.172,0,0,1,.646,4.146ZM1.16,1.5c-.4,0-.686.457-.686,1.111,0,.428.176.684.472.684.461,0,.857-.588.857-1.069A.656.656,0,0,0,1.16,1.5Z" transform="translate(22.557 0.171)" fill="#dce5e5"/><path d="M.814,4.1l.514-3.077L1.414,4.1h.6L3.128,1.026,2.657,4.1h.9L4.242,0H3.171l-1.2,2.522L1.928,0H1.457L0,4.1Z" transform="translate(0.021 0.128)" fill="#dce5e5"/><path d="M0,3.334H.9c.257-1.41.3-2.564.9-2.351A3.349,3.349,0,0,1,2.1,0H1.928c-.386,0-.686.513-.686.513l.086-.47" transform="translate(13.219 0.898)" fill="#dce5e5"/><path d="M.815,3.419C.678,3.419,0,3.374,0,2.479,0,1.289,1.181,1.2,1.543,1.2h.385s.043-.043.043-.214c0-.263-.268-.3-.557-.3A2.564,2.564,0,0,0,.472.855L1.586,0c.8,0,1.2.345,1.2,1.026L2.443,3.377H1.671l.042-.342c-.01,0-.028.018-.056.044A1.171,1.171,0,0,1,.815,3.419ZM1.628,1.8c-.671,0-.771.321-.771.512A.333.333,0,0,0,1.2,2.65a1.408,1.408,0,0,0,1.029-.812H2.207A3.155,3.155,0,0,1,1.628,1.8Z" transform="translate(17.803 0.898)" fill="#dce5e5"/><path d="M0,3.334H.9c.257-1.41.3-2.564.9-2.351A3.349,3.349,0,0,1,2.1,0H1.928c-.386,0-.686.513-.686.513l.086-.47" transform="translate(20.417 0.898)" fill="#dce5e5"/></g></g></svg>