<svg id="Group_4" data-name="Group 4" xmlns="http://www.w3.org/2000/svg" width="17" height="17" viewBox="0 0 17 17">
  <path id="Shape" d="M8.5,17A8.5,8.5,0,1,1,17,8.5,8.51,8.51,0,0,1,8.5,17Zm0-15.683A7.183,7.183,0,1,0,15.683,8.5,7.191,7.191,0,0,0,8.5,1.317Z" fill="#00b372"/>
  <path id="Path" d="M7.333,3.333H4.667V.667a.667.667,0,0,0-1.333,0V3.333H.667a.667.667,0,0,0,0,1.333H3.333V7.333a.667.667,0,0,0,1.333,0V4.667H7.333a.667.667,0,0,0,0-1.333Z" transform="translate(5 5)" fill="#00b372"/>
</svg>
