<svg xmlns="http://www.w3.org/2000/svg" width="40" height="25" viewBox="0 0 40 25"><g fill="#f3f5f7" stroke="#e7eaed" stroke-miterlimit="10" stroke-width="1"><rect width="40" height="25" rx="2" stroke="none"/><rect x="0.5" y="0.5" width="39" height="24" rx="1.5" fill="none"/></g><g transform="translate(7 8)"><path d="M0,7.74,1.4,0H3.6L2.239,7.74Z" transform="translate(9.9 0.18)" fill="#3c58bf"/><path d="M0,7.74,1.8,0H3.6L2.239,7.74Z" transform="translate(9.9 0.18)" fill="#293688"/><path d="M6.48.349A5.238,5.238,0,0,0,4.532,0C2.414,0,.889,1.089.889,2.658c0,1.177,1.059,1.787,1.906,2.179s1.1.654,1.1,1c0,.523-.678.784-1.271.784A4.494,4.494,0,0,1,.593,6.188L.3,6.057,0,7.844a6.7,6.7,0,0,0,2.414.436c2.245,0,3.727-1.089,3.727-2.745,0-.915-.551-1.612-1.821-2.179-.762-.392-1.228-.61-1.228-1,0-.349.381-.7,1.228-.7a3.79,3.79,0,0,1,1.609.305l.212.087L6.48.349Z" transform="translate(13.32)" fill="#3c58bf"/><path d="M6.48.349A5.238,5.238,0,0,0,4.532,0C2.414,0,1.271,1.089,1.271,2.658A2.272,2.272,0,0,0,2.8,4.837c.847.392,1.1.654,1.1,1,0,.523-.678.784-1.271.784A4.494,4.494,0,0,1,.593,6.188L.3,6.057,0,7.844a6.7,6.7,0,0,0,2.414.436c2.245,0,3.727-1.089,3.727-2.745,0-.915-.551-1.612-1.821-2.179-.762-.392-1.228-.61-1.228-1,0-.349.381-.7,1.228-.7a3.79,3.79,0,0,1,1.609.305l.212.087L6.48.349Z" transform="translate(13.32)" fill="#293688"/><path d="M2.3,7.741H0L3.19.559C3.4.04,3.783,0,4.3,0H5.954L7.74,7.739H5.7L5.443,6.45H2.722L2.3,7.74ZM4.466,2.107c-.126.3-.3.769-.3.774S3.443,4.775,3.317,5.16V5.2H5.1c-.08-.406-.466-2.163-.51-2.362Z" transform="translate(19.26 0.18)" fill="#3c58bf"/><path d="M2.3,7.741H0L3.7.559C3.914.04,4.293,0,4.806,0H5.954L7.74,7.739H5.7L5.443,6.45H2.722L2.3,7.74ZM4.466,2.107c-.126.3-.3.769-.3.774S3.486,4.734,3.317,5.16V5.2H5.1c-.08-.406-.466-2.163-.51-2.362Z" transform="translate(19.26 0.18)" fill="#293688"/><path d="M3.225,5.375,3.01,4.257A6.233,6.233,0,0,0,0,.86L1.935,7.74H4.257L7.74,0H5.418Z" transform="translate(2.7 0.36)" fill="#3c58bf"/><path d="M3.225,5.375,3.01,4.257A6.233,6.233,0,0,0,0,.86L1.935,7.74H4.257L7.74,0H5.848Z" transform="translate(2.7 0.36)" fill="#293688"/><path d="M0,0,.387.086A7.257,7.257,0,0,1,5.76,4.32L4.986.648C4.857.13,4.47,0,4,0H0Z" transform="translate(0 0.18)" fill="#ffbc00"/><path d="M0,0H0C2.751.655,5.029,2.356,5.76,4.32l-.731-3.1A1.052,1.052,0,0,0,4,.393Z" transform="translate(0 0.18)" fill="#f7981d"/><path d="M0,0H0C2.751.655,5.029,2.356,5.76,4.32l-.516-1.7a1.538,1.538,0,0,0-.9-1.265Z" transform="translate(0 0.18)" fill="#ed7c00"/><g transform="translate(2.7 1.08)"><path d="M5.333,4.331,3.871,2.858,3.183,4.5,3.011,3.421A6.264,6.264,0,0,0,0,0L1.935,6.929H4.258Z" transform="translate(0 0.022)" fill="#051244"/><path d="M2.193,1.906.344,0,0,1.906Z" transform="translate(7.139 5.045)" fill="#051244"/><path d="M3.742,0h0c.172.173.258.3.215.476,0,.52-.688.78-1.29.78A4.647,4.647,0,0,1,.6.823L.3.693,0,2.469A6.931,6.931,0,0,0,2.452,2.9a4.241,4.241,0,0,0,3.14-1.083Z" transform="translate(10.537 4.266)" fill="#051244"/><path d="M0,5.673H2.021l.43-1.3H5.2l.258,1.3H7.527L6.8,2.512,4.215,0l.129.693s.43,1.949.516,2.382H3.054c.172-.433.86-2.3.86-2.3S4.086.3,4.215,0" transform="translate(16.773 1.278)" fill="#051244"/></g></g></svg>